<svg width="19" height="19" viewBox="0 0 19 19" fill="none" xmlns="http://www.w3.org/2000/svg">
<path fill-rule="evenodd" clip-rule="evenodd" d="M9.49478 18.9896C14.7386 18.9896 18.9896 14.7386 18.9896 9.49478C18.9896 4.25096 14.7386 0 9.49478 0C4.25096 0 0 4.25096 0 9.49478C0 14.7386 4.25096 18.9896 9.49478 18.9896ZM14.6009 4.38876C14.0241 3.81196 13.0891 3.81196 12.5123 4.38876L9.49481 7.40624L6.47734 4.38876C5.90053 3.81196 4.96557 3.81196 4.38876 4.38876C3.81196 4.96557 3.81196 5.90053 4.38876 6.47734L7.40623 9.49481L4.38876 12.5123C3.81196 13.0891 3.81196 14.0241 4.38876 14.6009C4.96558 15.1776 5.90057 15.1776 6.47734 14.6009L9.49481 11.5834L12.5123 14.6009C13.0891 15.1776 14.0241 15.1776 14.6009 14.6009C15.1776 14.0241 15.1776 13.0891 14.6009 12.5123L11.5834 9.49481L14.6009 6.47734C15.1776 5.90057 15.1776 4.96558 14.6009 4.38876Z" fill="#6E6D6B"/>
</svg>
